<?xml version="1.0" encoding="utf-8"?>
<!-- Generator: Adobe Illustrator 15.1.0, SVG Export Plug-In . SVG Version: 6.00 Build 0)  -->
<!DOCTYPE svg PUBLIC "-//W3C//DTD SVG 1.1//EN" "http://www.w3.org/Graphics/SVG/1.1/DTD/svg11.dtd">
<svg version="1.1"
	 id="svg2" xmlns:rdf="http://www.w3.org/1999/02/22-rdf-syntax-ns#" xmlns:dc="http://purl.org/dc/elements/1.1/" xmlns:sodipodi="http://sodipodi.sourceforge.net/DTD/sodipodi-0.dtd" xmlns:svg="http://www.w3.org/2000/svg" xmlns:cc="http://creativecommons.org/ns#" xmlns:inkscape="http://www.inkscape.org/namespaces/inkscape" inkscape:version="0.48.4 r9939" sodipodi:docname="fuel.svg"
	 xmlns="http://www.w3.org/2000/svg" xmlns:xlink="http://www.w3.org/1999/xlink" x="0px" y="0px" width="18px" height="18px"
	 viewBox="0 0 18 18" enable-background="new 0 0 18 18" xml:space="preserve">
<sodipodi:namedview  id="base" fit-margin-top="0" inkscape:current-layer="layer1" showgrid="true" inkscape:zoom="23.452375" inkscape:cx="7.2739782" borderopacity="1.0" inkscape:pageopacity="0.0" bordercolor="#666666" inkscape:cy="9" inkscape:window-y="24" inkscape:window-height="744" inkscape:window-x="0" inkscape:pageshadow="2" pagecolor="#ffffff" inkscape:window-width="1366" inkscape:window-maximized="1" fit-margin-right="0" inkscape:snap-grids="true" fit-margin-bottom="0" fit-margin-left="0" inkscape:document-units="px">
	
		<inkscape:grid  type="xygrid" id="grid3769" originy="-1.7382813e-05px" empspacing="5" visible="true" originx="0px" snapvisiblegridlinesonly="true" enabled="true">
		</inkscape:grid>
</sodipodi:namedview>
<g id="layer1" transform="translate(0,-1034.3622)" inkscape:label="Layer 1" inkscape:groupmode="layer">
	<rect id="rect3790" y="1034.362" fill="#FFFFFF" width="18" height="18"/>
	<rect id="rect3792" x="1" y="1035.362" fill="none" stroke="#83B295" stroke-width="2" width="16" height="16"/>
</g>
<path fill="#444444" d="M12.771,5.393v8.593c0,0.53-0.43,0.96-0.961,0.96H6.208c-0.53,0-0.96-0.43-0.96-0.96V5.393
	c0,0,1.291-0.32,3.851-0.32S12.771,5.393,12.771,5.393z"/>
<line fill="none" stroke="#FFFFFF" stroke-width="0.72" stroke-linecap="round" stroke-miterlimit="10" x1="9.027" y1="6.853" x2="9.027" y2="13.232"/>
<line fill="none" stroke="#FFFFFF" stroke-width="0.72" stroke-linecap="round" stroke-miterlimit="10" x1="10.947" y1="6.853" x2="10.947" y2="13.232"/>
<line fill="none" stroke="#FFFFFF" stroke-width="0.72" stroke-linecap="round" stroke-miterlimit="10" x1="7.106" y1="6.853" x2="7.106" y2="13.232"/>
<path fill="none" stroke="#444444" stroke-width="0.96" stroke-linecap="square" stroke-miterlimit="10" d="M5.313,4.444
	c0.815-0.26,2.159-0.429,3.679-0.429c1.481,0,2.795,0.161,3.615,0.41"/>
<path fill="none" stroke="#444444" stroke-width="0.48" stroke-linecap="square" stroke-miterlimit="10" d="M7.553,3.775
	c0-0.486,0.645-0.88,1.439-0.88s1.439,0.395,1.439,0.88"/>
</svg>
