<?xml version="1.0" encoding="UTF-8" standalone="no"?>
<!-- Created with Inkscape (http://www.inkscape.org/) -->

<svg
   xmlns:dc="http://purl.org/dc/elements/1.1/"
   xmlns:cc="http://creativecommons.org/ns#"
   xmlns:rdf="http://www.w3.org/1999/02/22-rdf-syntax-ns#"
   xmlns:svg="http://www.w3.org/2000/svg"
   xmlns="http://www.w3.org/2000/svg"
   xmlns:sodipodi="http://sodipodi.sourceforge.net/DTD/sodipodi-0.dtd"
   xmlns:inkscape="http://www.inkscape.org/namespaces/inkscape"
   width="12"
   height="14"
   id="svg2"
   version="1.1"
   inkscape:version="0.48.4 r9939"
   sodipodi:docname="station.svg">
  <defs
     id="defs4" />
  <sodipodi:namedview
     id="base"
     pagecolor="#ffffff"
     bordercolor="#666666"
     borderopacity="1.0"
     inkscape:pageopacity="0.0"
     inkscape:pageshadow="2"
     inkscape:zoom="23.452375"
     inkscape:cx="6.3058801"
     inkscape:cy="7.2749212"
     inkscape:document-units="px"
     inkscape:current-layer="layer1"
     showgrid="true"
     inkscape:window-width="1366"
     inkscape:window-height="744"
     inkscape:window-x="0"
     inkscape:window-y="24"
     inkscape:window-maximized="1"
     fit-margin-top="0"
     fit-margin-left="0"
     fit-margin-right="0"
     fit-margin-bottom="0"
     inkscape:snap-grids="true">
    <inkscape:grid
       type="xygrid"
       id="grid3769"
       empspacing="5"
       visible="true"
       enabled="true"
       snapvisiblegridlinesonly="true"
       originx="-3px"
       originy="-2.0000348px" />
  </sodipodi:namedview>
  <metadata
     id="metadata7">
    <rdf:RDF>
      <cc:Work
         rdf:about="">
        <dc:format>image/svg+xml</dc:format>
        <dc:type
           rdf:resource="http://purl.org/dc/dcmitype/StillImage" />
        <dc:title />
      </cc:Work>
    </rdf:RDF>
  </metadata>
  <g
     inkscape:label="Layer 1"
     inkscape:groupmode="layer"
     id="layer1"
     transform="translate(-3,-1036.3622)">
    <path
       style="fill:none;fill-opacity:1;stroke:#ffffff;stroke-opacity:1;stroke-linejoin:round;stroke-width:2;stroke-miterlimit:4;stroke-dasharray:none;opacity:0.5"
       sodipodi:nodetypes="cccccccccccccccccccccccccccccc"
       id="path2993"
       d="m 11.61775,1046.3773 c 0.683468,-0.1047 1.364971,-0.7643 1.363429,-1.5692 l 0,-5.8762 c 0.0017,-0.8285 -0.754032,-1.5902 -1.777691,-1.5893 -1.4634994,0 -2.9269987,0 -4.3904981,0 -1.029832,0 -1.7855474,0.7608 -1.784565,1.5893 l 0,5.8762 c -9.701e-4,0.8049 0.6806626,1.4646 1.3634295,1.5692 L 4,1049.3622 l 1.1848468,0 1.8151532,-2 c 4,0 0,0 4,0 l 1.822029,2 1.177971,0 z M 8,1045.3622 l -2,0 0,-2 2,0 z m -2,-3.5 0,-2 6,0 0,2 z m 6,1.5 0,2 -2,0 0,-2 z"
       inkscape:connector-curvature="0" />
    <path
       inkscape:connector-curvature="0"
       d="m 11.61775,1046.3773 c 0.683468,-0.1047 1.364971,-0.7643 1.363429,-1.5692 l 0,-5.8762 c 0.0017,-0.8285 -0.754032,-1.5902 -1.777691,-1.5893 -1.4634994,0 -2.9269987,0 -4.3904981,0 -1.029832,0 -1.7855474,0.7608 -1.784565,1.5893 l 0,5.8762 c -9.701e-4,0.8049 0.6806626,1.4646 1.3634295,1.5692 L 4,1049.3622 l 1.1848468,0 1.8151532,-2 c 4,0 0,0 4,0 l 1.822029,2 1.177971,0 z M 8,1045.3622 l -2,0 0,-2 2,0 z m -2,-3.5 0,-2 6,0 0,2 z m 6,1.5 0,2 -2,0 0,-2 z"
       id="path3062"
       sodipodi:nodetypes="cccccccccccccccccccccccccccccc"
       style="fill:#888888;fill-opacity:1" />
  </g>
</svg>
