<?xml version="1.0" encoding="utf-8"?>
<!-- Generator: Adobe Illustrator 15.1.0, SVG Export Plug-In . SVG Version: 6.00 Build 0)  -->
<!DOCTYPE svg PUBLIC "-//W3C//DTD SVG 1.1//EN" "http://www.w3.org/Graphics/SVG/1.1/DTD/svg11.dtd">
<svg version="1.1"
	 id="svg2" xmlns:rdf="http://www.w3.org/1999/02/22-rdf-syntax-ns#" xmlns:dc="http://purl.org/dc/elements/1.1/" xmlns:sodipodi="http://sodipodi.sourceforge.net/DTD/sodipodi-0.dtd" xmlns:svg="http://www.w3.org/2000/svg" xmlns:cc="http://creativecommons.org/ns#" xmlns:inkscape="http://www.inkscape.org/namespaces/inkscape" inkscape:version="0.48.4 r9939" sodipodi:docname="fuel.svg"
	 xmlns="http://www.w3.org/2000/svg" xmlns:xlink="http://www.w3.org/1999/xlink" x="0px" y="0px" width="18px" height="18px"
	 viewBox="0 0 18 18" enable-background="new 0 0 18 18" xml:space="preserve">
<sodipodi:namedview  id="base" fit-margin-top="0" inkscape:current-layer="layer1" showgrid="true" inkscape:zoom="23.452375" inkscape:cx="7.2739782" borderopacity="1.0" inkscape:pageopacity="0.0" bordercolor="#666666" inkscape:cy="9" inkscape:window-y="24" inkscape:window-height="744" inkscape:window-x="0" inkscape:pageshadow="2" pagecolor="#ffffff" inkscape:window-width="1366" inkscape:window-maximized="1" fit-margin-right="0" inkscape:snap-grids="true" fit-margin-bottom="0" fit-margin-left="0" inkscape:document-units="px">
	
		<inkscape:grid  type="xygrid" id="grid3769" originy="-1.7382813e-05px" empspacing="5" visible="true" originx="0px" snapvisiblegridlinesonly="true" enabled="true">
		</inkscape:grid>
</sodipodi:namedview>
<g id="layer1" transform="translate(0,-1034.3622)" inkscape:label="Layer 1" inkscape:groupmode="layer">
	<rect id="rect3790" y="1034.362" fill="#FFFFFF" width="18" height="18"/>
	<rect id="rect3792" x="1" y="1035.362" fill="none" stroke="#83B295" stroke-width="2" width="16" height="16"/>
</g>
<g>
	<path fill="#FFFFFF" d="M7.046,9.303V8.428c0,0,0-1.859,1.862-1.859c1.857,0,4.092,0,4.092,0"/>
	<path fill="#444444" d="M7.983,9.303H6.108V8.428c0-1.124,0.746-2.797,2.8-2.797H13v1.875H8.908c-0.744,0-0.914,0.507-0.925,0.933
		V9.303z"/>
</g>
<path fill="#444444" d="M11.896,2.763H8.896c-0.518,0-0.938,0.42-0.938,0.938s0.42,0.938,0.938,0.938h0.796v2.108h1.406V4.638h0.799
	c0.518,0,0.938-0.42,0.938-0.938S12.414,2.763,11.896,2.763z"/>
<path fill="#444444" d="M6.997,10.174c0,0,2.86,4.826,0,4.826S6.997,10.174,6.997,10.174z"/>
</svg>
