<?xml version="1.0" encoding="UTF-8" standalone="no"?>
<!-- Created with Inkscape (http://www.inkscape.org/) -->
<svg
   xmlns:svg="http://www.w3.org/2000/svg"
   xmlns="http://www.w3.org/2000/svg"
   version="1.0"
   id="svg1910"
   x="0px"
   y="0px"
   width="200px"
   height="200px"
   viewBox="40 40 120 120"
   enable-background="new 10 10 160 160"
   xml:space="preserve">
    <path
       d="M 44.573078,160 C 41.688018,159.81548 41.268491,160.03656 40.485531,158.17444 C 39.908638,154.23712 39.306051,148.98725 42.119498,145.82654 C 43.257744,144.63488 44.756124,143.65988 45.449231,143.65988 C 59.654345,139.25126 64.617578,143.72668 66.485032,127.65988 C 67.698052,119.1329 68.37445,110.55189 68.210197,101.93356 C 68.10879,100.34188 65.643712,98.993208 62.835852,98.993208 C 61.590365,98.993208 60.237678,98.268381 58.867225,96.866648 C 56.147172,94.084514 56.125425,91.441414 58.792298,87.759901 C 60.632092,85.220134 61.043272,84.993208 63.805338,84.993208 C 66.688458,84.993208 66.474158,84.947308 66.497138,83.244768 C 66.567212,78.053101 64.307518,78.785448 61.529925,78.636488 C 49.344658,77.982994 49.533258,74.981194 45.542391,69.678281 C 38.306498,48.84623 61.852832,43.12044 77.454783,39.803505 C 96.847923,37.563554 147.46188,34.725914 145.43808,66.993208 C 143.29196,72.757421 138.47534,76.519374 131.258,76.982041 C 125.25174,77.367068 123.63672,80.865281 123.09012,88.033534 C 122.60568,94.386781 123.2538,94.492061 128.03626,95.399908 L 175.4993,104.40971 C 176.27565,104.55708 176.08968,107.9662 175.98268,110.76477 C 175.73326,117.28771 175.36328,117.41702 168.32975,116.36898 L 126.8631,110.19014 C 123.91874,110.45134 123.57358,113.78862 124.76085,116.03261 C 125.76128,126.67257 118.69273,138.33477 134.1966,141.3272 C 141.4731,141.86952 147.49052,140.83614 150.87254,143.70453 C 153.92514,146.29354 153.54349,154.5554 153.52506,156.05733 C 153.4851,159.31539 151.564,160 148.33948,160 L 44.573078,160 z " />
</svg>
