<?xml version="1.0" encoding="utf-8"?>
<!-- Generator: Adobe Illustrator 15.1.0, SVG Export Plug-In . SVG Version: 6.00 Build 0)  -->
<!DOCTYPE svg PUBLIC "-//W3C//DTD SVG 1.1//EN" "http://www.w3.org/Graphics/SVG/1.1/DTD/svg11.dtd">
<svg version="1.1"
	 id="svg2" xmlns:rdf="http://www.w3.org/1999/02/22-rdf-syntax-ns#" xmlns:dc="http://purl.org/dc/elements/1.1/" xmlns:sodipodi="http://sodipodi.sourceforge.net/DTD/sodipodi-0.dtd" xmlns:svg="http://www.w3.org/2000/svg" xmlns:cc="http://creativecommons.org/ns#" xmlns:inkscape="http://www.inkscape.org/namespaces/inkscape" inkscape:version="0.48.4 r9939" sodipodi:docname="fuel.svg"
	 xmlns="http://www.w3.org/2000/svg" xmlns:xlink="http://www.w3.org/1999/xlink" x="0px" y="0px" width="18px" height="18px"
	 viewBox="0 0 18 18" enable-background="new 0 0 18 18" xml:space="preserve">
<sodipodi:namedview  id="base" fit-margin-top="0" inkscape:current-layer="layer1" showgrid="true" inkscape:zoom="23.452375" inkscape:cx="7.2739782" borderopacity="1.0" inkscape:pageopacity="0.0" bordercolor="#666666" inkscape:cy="9" inkscape:window-y="24" inkscape:window-height="744" inkscape:window-x="0" inkscape:pageshadow="2" pagecolor="#ffffff" inkscape:window-width="1366" inkscape:window-maximized="1" fit-margin-right="0" inkscape:snap-grids="true" fit-margin-bottom="0" fit-margin-left="0" inkscape:document-units="px">
	
		<inkscape:grid  type="xygrid" id="grid3769" originy="-1.7382813e-05px" empspacing="5" visible="true" originx="0px" snapvisiblegridlinesonly="true" enabled="true">
		</inkscape:grid>
</sodipodi:namedview>
<g id="layer1" transform="translate(0,-1034.3622)" inkscape:label="Layer 1" inkscape:groupmode="layer">
	<rect id="rect3790" y="1034.362" fill="#FFFFFF" width="18" height="18"/>
	<rect id="rect3792" x="1" y="1035.362" fill="none" stroke="#83B295" stroke-width="2" width="16" height="16"/>
</g>
<g>
	<path fill="#444444" d="M6.692,5.214H4.871c-0.284,0-0.541,0.102-0.768,0.307c-0.171,0.158-0.282,0.335-0.34,0.528L2.981,8.654
		C2.959,8.709,2.946,8.761,2.946,8.806c0,0.262,0.131,0.392,0.391,0.392c0.184,0,0.303-0.102,0.36-0.306l0.714-2.385h0.391
		l-1.175,4.239h1.141v3.303c0,0.297,0.144,0.443,0.427,0.443c0.282,0,0.426-0.146,0.426-0.443V10.73h0.425v3.338
		c0,0.283,0.142,0.424,0.426,0.424s0.426-0.141,0.426-0.424v-3.322h1.14L6.845,6.507h0.409l0.715,2.385
		c0.058,0.204,0.175,0.306,0.356,0.306c0.262,0,0.392-0.13,0.392-0.392c0-0.057-0.01-0.107-0.032-0.152L7.901,6.049
		C7.844,5.867,7.713,5.691,7.509,5.521C7.259,5.316,6.987,5.214,6.692,5.214L6.692,5.214z"/>
	<path fill="#444444" d="M5.823,5.027c0.262,0,0.482-0.091,0.664-0.272c0.184-0.182,0.273-0.396,0.273-0.647
		c0-0.261-0.09-0.481-0.273-0.663C6.306,3.262,6.085,3.171,5.823,3.171c-0.25,0-0.465,0.091-0.647,0.272
		C4.995,3.625,4.904,3.846,4.904,4.107c0,0.251,0.091,0.466,0.271,0.647C5.358,4.936,5.573,5.027,5.823,5.027L5.823,5.027z"/>
</g>
<g>
	<path fill="#444444" d="M12.288,5.009c0.249,0,0.466-0.09,0.646-0.271c0.182-0.182,0.272-0.397,0.272-0.646
		c0-0.262-0.091-0.479-0.272-0.656c-0.181-0.176-0.397-0.264-0.646-0.264c-0.25,0-0.467,0.088-0.647,0.264
		c-0.182,0.177-0.271,0.395-0.271,0.656c0,0.249,0.09,0.465,0.271,0.646C11.821,4.919,12.038,5.009,12.288,5.009L12.288,5.009z"/>
	<path fill="#444444" d="M13.497,5.197h-2.435c-0.33,0-0.611,0.116-0.843,0.35c-0.233,0.232-0.351,0.52-0.351,0.859v2.826
		c0,0.272,0.125,0.409,0.376,0.409c0.238,0,0.357-0.137,0.357-0.409V6.474h0.441v7.491c0,0.342,0.17,0.512,0.511,0.512
		c0.343,0,0.512-0.17,0.512-0.512V9.623h0.442v4.342c0,0.342,0.17,0.512,0.51,0.512c0.353,0,0.529-0.17,0.529-0.512V6.474h0.425
		v2.758c0,0.284,0.12,0.424,0.357,0.424c0.238,0,0.358-0.141,0.358-0.424v-2.81c0-0.328-0.111-0.615-0.333-0.859
		C14.135,5.32,13.848,5.197,13.497,5.197L13.497,5.197z"/>
</g>
</svg>
